<?xml version="1.0" encoding="UTF-8"?>
<svg id="Layer_1" data-name="Layer 1" xmlns="http://www.w3.org/2000/svg" viewBox="0 0 9528.48 1563.12">
  <defs>
    <style>
      .cls-1 {
        fill-rule: evenodd;
      }

      .cls-2 {
        fill: #fff;
      }
    </style>
  </defs>
  <polygon class="cls-2" points="5587.4 1303.36 1127.42 1303.36 1127.42 232.23 5587.4 232.23 4981 767.79 5587.4 1303.36"/>
  <g>
    <polyline class="cls-1" points="4073.36 767.8 3608.55 1185.91 3940.2 1185.91 4238.57 917.12 4538.17 1185.91 4869.83 1185.91 4405.01 767.8 4869.83 349.68 4538.17 349.68 4238.57 618.47"/>
    <path class="cls-1" d="M2946.79,671.03v193.53s398.23,0,398.23,0v129.02s-664.55,0-664.55,0c0,0-66.58,0-66.58-64.51v-322.54c0-63.31,66.58-63.31,66.58-63.31h597.97s66.58,0,66.58,63.31h265.08c0-63.31,0-256.84-265.08-256.84h-731.13c-265.08,0-265.08,193.53-265.08,256.84v322.54c0,64.51,0,256.84,265.08,256.84h996.2s0-514.87,0-514.87h-663.31Z"/>
    <polygon class="cls-1" points="1310.52 349.68 1310.52 543.21 1808.62 543.21 1808.62 1059.26 1808.62 1185.91 2073.7 1185.91 2073.7 543.21 2571.8 543.21 2571.8 349.68 1310.52 349.68"/>
    <polyline class="cls-1" points="4170.52 556.62 3940.82 349.68 3609.16 349.68 4044.61 741.38"/>
  </g>
  <polyline class="cls-2" points="911.65 1303.36 911.65 232.23 325.63 232.23 911.65 0 0 220.9 659.91 483.91 911.65 1303.36 911.65 1303.36 911.65 1303.36 911.65 1303.36 911.65 1303.36"/>
  <g>
    <path class="cls-2" d="M6500.31,232.23v267.78h-175.97v-93.34h-208.11v198.93l59.68,59.68h162.2l162.2,162.2v475.89h-558.52v-286.15h174.44v111.7h208.11v-229.53l-58.15-59.68h-163.73l-160.67-162.2V232.23h558.52Z"/>
    <path class="cls-2" d="M7161.33,232.23v174.44h-302.98l302.98,292.27v175.97h-347.35v254.01h347.35v174.44h-523.33v-602.9h272.37l-272.37-261.66v-206.58h523.33Z"/>
    <path class="cls-2" d="M7857.56,825.94v477.42h-175.97v-403.97l-58.15-59.68h-149.96v463.65h-174.44V232.23h558.52v445.29l-74.98,74.98,74.98,73.45ZM7473.48,665.27h149.96l58.15-59.68v-198.93h-208.11v258.6Z"/>
    <path class="cls-2" d="M7995.26,232.23h175.97v1071.14h-175.97V232.23Z"/>
    <path class="cls-2" d="M8832.25,232.23v174.44h-302.98l302.98,292.27v175.97h-347.35v254.01h347.35v174.44h-523.33v-602.9h272.37l-272.37-261.66v-206.58h523.33Z"/>
    <path class="cls-2" d="M9528.48,232.23v267.78h-175.97v-93.34h-208.11v198.93l59.68,59.68h162.2l162.2,162.2v475.89h-558.52v-286.15h174.44v111.7h208.11v-229.53l-58.15-59.68h-163.73l-160.67-162.2V232.23h558.52Z"/>
  </g>
  <text/>
</svg>